%TF.GenerationSoftware,KiCad,Pcbnew,9.0.6*%
%TF.CreationDate,2026-05-04T19:09:05+02:00*%
%TF.ProjectId,belaGemWorkshopPCB,62656c61-4765-46d5-976f-726b73686f70,rev?*%
%TF.SameCoordinates,Original*%
%TF.FileFunction,Copper,L4,Bot*%
%TF.FilePolarity,Positive*%
%FSLAX46Y46*%
G04 Gerber Fmt 4.6, Leading zero omitted, Abs format (unit mm)*
G04 Created by KiCad (PCBNEW 9.0.6) date 2026-05-04 19:09:05*
%MOMM*%
%LPD*%
G01*
G04 APERTURE LIST*
G04 Aperture macros list*
%AMRoundRect*
0 Rectangle with rounded corners*
0 $1 Rounding radius*
0 $2 $3 $4 $5 $6 $7 $8 $9 X,Y pos of 4 corners*
0 Add a 4 corners polygon primitive as box body*
4,1,4,$2,$3,$4,$5,$6,$7,$8,$9,$2,$3,0*
0 Add four circle primitives for the rounded corners*
1,1,$1+$1,$2,$3*
1,1,$1+$1,$4,$5*
1,1,$1+$1,$6,$7*
1,1,$1+$1,$8,$9*
0 Add four rect primitives between the rounded corners*
20,1,$1+$1,$2,$3,$4,$5,0*
20,1,$1+$1,$4,$5,$6,$7,0*
20,1,$1+$1,$6,$7,$8,$9,0*
20,1,$1+$1,$8,$9,$2,$3,0*%
G04 Aperture macros list end*
%TA.AperFunction,ComponentPad*%
%ADD10RoundRect,0.250000X0.845000X-0.620000X0.845000X0.620000X-0.845000X0.620000X-0.845000X-0.620000X0*%
%TD*%
%TA.AperFunction,ComponentPad*%
%ADD11O,2.190000X1.740000*%
%TD*%
%TA.AperFunction,ComponentPad*%
%ADD12RoundRect,0.250000X-0.620000X-0.845000X0.620000X-0.845000X0.620000X0.845000X-0.620000X0.845000X0*%
%TD*%
%TA.AperFunction,ComponentPad*%
%ADD13O,1.740000X2.190000*%
%TD*%
%TA.AperFunction,ComponentPad*%
%ADD14O,1.700000X1.700000*%
%TD*%
%TA.AperFunction,ComponentPad*%
%ADD15R,1.700000X1.700000*%
%TD*%
%TA.AperFunction,ComponentPad*%
%ADD16C,1.700000*%
%TD*%
%TA.AperFunction,ComponentPad*%
%ADD17C,5.600000*%
%TD*%
%TA.AperFunction,Conductor*%
%ADD18C,0.200000*%
%TD*%
G04 APERTURE END LIST*
D10*
%TO.P,J6,1*%
%TO.N,/hp-L*%
X117000000Y-132080000D03*
D11*
%TO.P,J6,2*%
%TO.N,/hp-R*%
X117000000Y-129540000D03*
%TO.P,J6,3*%
%TO.N,GND*%
X117000000Y-127000000D03*
%TD*%
%TO.P,J1,2*%
%TO.N,GND*%
X185000000Y-129000000D03*
D10*
%TO.P,J1,1*%
%TO.N,Net-(SW1-A)*%
X185000000Y-131540000D03*
%TD*%
D12*
%TO.P,Dig16,1,A*%
%TO.N,GND*%
X133000000Y-62000000D03*
D13*
%TO.P,Dig16,2,B*%
%TO.N,/D5*%
X135540000Y-62000000D03*
%TD*%
D12*
%TO.P,Dig14,1,A*%
%TO.N,GND*%
X124000000Y-62000000D03*
D13*
%TO.P,Dig14,2,B*%
%TO.N,/D4*%
X126540000Y-62000000D03*
%TD*%
D12*
%TO.P,Dig3,1,A*%
%TO.N,GND*%
X124000000Y-52000000D03*
D13*
%TO.P,Dig3,2,B*%
%TO.N,/D0*%
X126540000Y-52000000D03*
%TD*%
D12*
%TO.P,Dig12,1,A*%
%TO.N,GND*%
X150460000Y-83000000D03*
D13*
%TO.P,Dig12,2,B*%
%TO.N,/D15*%
X153000000Y-83000000D03*
%TD*%
D12*
%TO.P,Dig7,1,A*%
%TO.N,GND*%
X124000000Y-72000000D03*
D13*
%TO.P,Dig7,2,B*%
%TO.N,/D8*%
X126540000Y-72000000D03*
%TD*%
D12*
%TO.P,Dig15,1,A*%
%TO.N,GND*%
X150460000Y-72000000D03*
D13*
%TO.P,Dig15,2,B*%
%TO.N,/D11*%
X153000000Y-72000000D03*
%TD*%
D12*
%TO.P,Dig5,1,A*%
%TO.N,GND*%
X150460000Y-62000000D03*
D13*
%TO.P,Dig5,2,B*%
%TO.N,/D7*%
X153000000Y-62000000D03*
%TD*%
D12*
%TO.P,Dig13,1,A*%
%TO.N,GND*%
X141460000Y-72000000D03*
D13*
%TO.P,Dig13,2,B*%
%TO.N,/D10*%
X144000000Y-72000000D03*
%TD*%
D10*
%TO.P,An1,1,1*%
%TO.N,GND*%
X176000000Y-85080000D03*
D11*
%TO.P,An1,2,2*%
%TO.N,/A4*%
X176000000Y-82540000D03*
%TO.P,An1,3,3*%
%TO.N,+3.3V*%
X176000000Y-80000000D03*
%TD*%
D14*
%TO.P,U1,A0,A0*%
%TO.N,/A0*%
X174620000Y-102093600D03*
%TO.P,U1,A1,A1*%
%TO.N,/A1*%
X172080000Y-102093600D03*
%TO.P,U1,A2,A2*%
%TO.N,/A2*%
X169540000Y-102093600D03*
%TO.P,U1,A3,A3*%
%TO.N,/A3*%
X167000000Y-102093600D03*
%TO.P,U1,A4,A4*%
%TO.N,/A4*%
X164460000Y-102093600D03*
%TO.P,U1,A5,A5*%
%TO.N,/A5*%
X161920000Y-102093600D03*
%TO.P,U1,A6,A6*%
%TO.N,/A6*%
X159380000Y-102093600D03*
%TO.P,U1,A7,A7*%
%TO.N,/A7*%
X156840000Y-102093600D03*
%TO.P,U1,AREF,REF*%
%TO.N,unconnected-(U1D-REF-PadAREF)*%
X151760000Y-102093600D03*
%TO.P,U1,GNDA,GND*%
%TO.N,GND*%
X154300000Y-102093600D03*
D15*
%TO.P,U1,HPG,GND*%
X139066100Y-94460000D03*
D16*
%TO.P,U1,HPL,Left*%
%TO.N,/hp-L*%
X136526100Y-94460000D03*
%TO.P,U1,HPR,Right*%
%TO.N,/hp-R*%
X133986100Y-94460000D03*
D15*
%TO.P,U1,LIG,GND*%
%TO.N,GND*%
X139066100Y-127480000D03*
D16*
%TO.P,U1,LIL,Left*%
%TO.N,/inL*%
X136526100Y-127480000D03*
%TO.P,U1,LIR,Right*%
%TO.N,/inR*%
X133986100Y-127480000D03*
D15*
%TO.P,U1,LOG,GND*%
%TO.N,GND*%
X154306100Y-127480000D03*
D16*
%TO.P,U1,LOLN,L-*%
%TO.N,/out-L*%
X151766100Y-127480000D03*
%TO.P,U1,LOLP,L+*%
%TO.N,/out+L*%
X149226100Y-127480000D03*
%TO.P,U1,LORN,R-*%
%TO.N,/out-R*%
X146686100Y-127480000D03*
%TO.P,U1,LORP,R+*%
%TO.N,/out+R*%
X144146100Y-127480000D03*
D17*
%TO.P,U1,MP*%
%TO.N,N/C*%
X177166100Y-130020000D03*
X177166100Y-91920000D03*
X128906100Y-130020000D03*
X128906100Y-91920000D03*
D14*
%TO.P,U1,P1.1*%
X174626100Y-97000000D03*
%TO.P,U1,P1.2*%
X174626100Y-99540000D03*
%TO.P,U1,P1.3*%
X172086100Y-97000000D03*
%TO.P,U1,P1.4*%
X172086100Y-99540000D03*
%TO.P,U1,P1.5*%
X169546100Y-97000000D03*
%TO.P,U1,P1.6*%
X169546100Y-99540000D03*
%TO.P,U1,P1.7*%
X167006100Y-97000000D03*
%TO.P,U1,P1.8*%
X167006100Y-99540000D03*
%TO.P,U1,P1.9*%
X164466100Y-97000000D03*
%TO.P,U1,P1.10*%
X164466100Y-99540000D03*
%TO.P,U1,P1.11*%
X161926100Y-97000000D03*
%TO.P,U1,P1.12*%
X161926100Y-99540000D03*
%TO.P,U1,P1.13*%
X159386100Y-97000000D03*
%TO.P,U1,P1.14*%
X159386100Y-99540000D03*
%TO.P,U1,P1.15*%
X156846100Y-97000000D03*
%TO.P,U1,P1.16*%
X156846100Y-99540000D03*
%TO.P,U1,P1.17*%
X154306100Y-97000000D03*
%TO.P,U1,P1.18*%
X154306100Y-99540000D03*
%TO.P,U1,P1.19*%
X151766100Y-97000000D03*
%TO.P,U1,P1.20*%
X151766100Y-99540000D03*
%TO.P,U1,P1.21,D0*%
%TO.N,/D0*%
X149226100Y-97000000D03*
%TO.P,U1,P1.22*%
%TO.N,N/C*%
X149226100Y-99540000D03*
%TO.P,U1,P1.23,D1*%
%TO.N,/D1*%
X146686100Y-97000000D03*
%TO.P,U1,P1.24*%
%TO.N,N/C*%
X146686100Y-99540000D03*
%TO.P,U1,P1.25,D2*%
%TO.N,/D2*%
X144146100Y-97000000D03*
%TO.P,U1,P1.26*%
%TO.N,N/C*%
X144146100Y-99540000D03*
%TO.P,U1,P1.27,D3*%
%TO.N,/D3*%
X141606100Y-97000000D03*
%TO.P,U1,P1.28*%
%TO.N,N/C*%
X141606100Y-99540000D03*
%TO.P,U1,P1.29*%
X139066100Y-97000000D03*
%TO.P,U1,P1.30,D4*%
%TO.N,/D4*%
X139066100Y-99540000D03*
%TO.P,U1,P1.31*%
%TO.N,N/C*%
X136526100Y-97000000D03*
%TO.P,U1,P1.32,D5*%
%TO.N,/D5*%
X136526100Y-99540000D03*
%TO.P,U1,P1.33*%
%TO.N,N/C*%
X133986100Y-97000000D03*
%TO.P,U1,P1.34,D6*%
%TO.N,/D6*%
X133986100Y-99540000D03*
%TO.P,U1,P1.35*%
%TO.N,N/C*%
X131446100Y-97000000D03*
%TO.P,U1,P1.36*%
X131446100Y-99540000D03*
%TO.P,U1,P2.1,D7*%
%TO.N,/D7*%
X174626100Y-122400000D03*
%TO.P,U1,P2.2*%
%TO.N,N/C*%
X174626100Y-124940000D03*
%TO.P,U1,P2.3,D8*%
%TO.N,/D8*%
X172086100Y-122400000D03*
%TO.P,U1,P2.4*%
%TO.N,N/C*%
X172086100Y-124940000D03*
%TO.P,U1,P2.5,DNC*%
%TO.N,unconnected-(U1A-DNC-PadP2.5)*%
X169546100Y-122400000D03*
%TO.P,U1,P2.6,GEM_BUTTON*%
%TO.N,unconnected-(U1A-GEM_BUTTON-PadP2.6)*%
X169546100Y-124940000D03*
%TO.P,U1,P2.7,DNC*%
%TO.N,unconnected-(U1A-DNC-PadP2.7)*%
X167006100Y-122400000D03*
%TO.P,U1,P2.8*%
%TO.N,N/C*%
X167006100Y-124940000D03*
%TO.P,U1,P2.9,D9*%
%TO.N,/D9*%
X164466100Y-122400000D03*
%TO.P,U1,P2.10*%
%TO.N,N/C*%
X164466100Y-124940000D03*
%TO.P,U1,P2.11,DNC*%
%TO.N,unconnected-(U1A-DNC-PadP2.11)*%
X161926100Y-122400000D03*
%TO.P,U1,P2.12,PWR_BTN*%
%TO.N,unconnected-(U1A-PWR_BTN-PadP2.12)*%
X161926100Y-124940000D03*
%TO.P,U1,P2.13,5V*%
%TO.N,+5V*%
X159386100Y-122400000D03*
%TO.P,U1,P2.14,BAT.VIN*%
%TO.N,unconnected-(U1B-BAT.VIN-PadP2.14)*%
X159386100Y-124940000D03*
%TO.P,U1,P2.15,GND*%
%TO.N,GND*%
X156846100Y-122400000D03*
%TO.P,U1,P2.16,BAT.TEMP*%
%TO.N,unconnected-(U1B-BAT.TEMP-PadP2.16)*%
X156846100Y-124940000D03*
%TO.P,U1,P2.17*%
%TO.N,N/C*%
X154306100Y-122400000D03*
%TO.P,U1,P2.18*%
X154306100Y-124940000D03*
%TO.P,U1,P2.19*%
X151766100Y-122400000D03*
%TO.P,U1,P2.20*%
X151766100Y-124940000D03*
%TO.P,U1,P2.21*%
X149226100Y-122400000D03*
%TO.P,U1,P2.22*%
X149226100Y-124940000D03*
%TO.P,U1,P2.23,3.3V*%
%TO.N,+3.3V*%
X146686100Y-122400000D03*
%TO.P,U1,P2.24*%
%TO.N,N/C*%
X146686100Y-124940000D03*
%TO.P,U1,P2.25,D10*%
%TO.N,/D10*%
X144146100Y-122400000D03*
%TO.P,U1,P2.26*%
%TO.N,N/C*%
X144146100Y-124940000D03*
%TO.P,U1,P2.27,D11*%
%TO.N,/D11*%
X141606100Y-122400000D03*
%TO.P,U1,P2.28*%
%TO.N,N/C*%
X141606100Y-124940000D03*
%TO.P,U1,P2.29,D12*%
%TO.N,/D12*%
X139066100Y-122400000D03*
%TO.P,U1,P2.30*%
%TO.N,N/C*%
X139066100Y-124940000D03*
%TO.P,U1,P2.31,DNC*%
%TO.N,unconnected-(U1A-DNC-PadP2.31)*%
X136526100Y-122400000D03*
%TO.P,U1,P2.32*%
%TO.N,N/C*%
X136526100Y-124940000D03*
%TO.P,U1,P2.33,D14*%
%TO.N,/D14*%
X133986100Y-122400000D03*
%TO.P,U1,P2.34*%
%TO.N,N/C*%
X133986100Y-124940000D03*
%TO.P,U1,P2.35,D15*%
%TO.N,/D15*%
X131446100Y-122400000D03*
%TO.P,U1,P2.36,D13*%
%TO.N,/D13*%
X131446100Y-124940000D03*
%TD*%
D12*
%TO.P,J2,1*%
%TO.N,/out+L*%
X160460000Y-139000000D03*
D13*
%TO.P,J2,2*%
%TO.N,/out-L*%
X163000000Y-139000000D03*
%TO.P,J2,3*%
%TO.N,GND*%
X165540000Y-139000000D03*
%TD*%
D12*
%TO.P,Dig8,1,A*%
%TO.N,GND*%
X141460000Y-52000000D03*
D13*
%TO.P,Dig8,2,B*%
%TO.N,/D2*%
X144000000Y-52000000D03*
%TD*%
D12*
%TO.P,J3,1*%
%TO.N,/out+R*%
X150460000Y-139000000D03*
D13*
%TO.P,J3,2*%
%TO.N,/out-R*%
X153000000Y-139000000D03*
%TO.P,J3,3*%
%TO.N,GND*%
X155540000Y-139000000D03*
%TD*%
D10*
%TO.P,An2,1,1*%
%TO.N,GND*%
X164000000Y-85080000D03*
D11*
%TO.P,An2,2,2*%
%TO.N,/A0*%
X164000000Y-82540000D03*
%TO.P,An2,3,3*%
%TO.N,+3.3V*%
X164000000Y-80000000D03*
%TD*%
D10*
%TO.P,An4,1,1*%
%TO.N,GND*%
X164000000Y-75080000D03*
D11*
%TO.P,An4,2,2*%
%TO.N,/A1*%
X164000000Y-72540000D03*
%TO.P,An4,3,3*%
%TO.N,+3.3V*%
X164000000Y-70000000D03*
%TD*%
D12*
%TO.P,Dig1,1,A*%
%TO.N,GND*%
X124000000Y-83000000D03*
D13*
%TO.P,Dig1,2,B*%
%TO.N,/D12*%
X126540000Y-83000000D03*
%TD*%
D12*
%TO.P,J4,1*%
%TO.N,GND*%
X139000000Y-139020000D03*
D13*
%TO.P,J4,2*%
%TO.N,/inL*%
X141540000Y-139020000D03*
%TD*%
D10*
%TO.P,An6,1,1*%
%TO.N,GND*%
X164000000Y-65080000D03*
D11*
%TO.P,An6,2,2*%
%TO.N,/A2*%
X164000000Y-62540000D03*
%TO.P,An6,3,3*%
%TO.N,+3.3V*%
X164000000Y-60000000D03*
%TD*%
D12*
%TO.P,Dig11,1,A*%
%TO.N,GND*%
X150460000Y-52000000D03*
D13*
%TO.P,Dig11,2,B*%
%TO.N,/D3*%
X153000000Y-52000000D03*
%TD*%
D10*
%TO.P,An7,1,1*%
%TO.N,GND*%
X176000000Y-55080000D03*
D11*
%TO.P,An7,2,2*%
%TO.N,/A7*%
X176000000Y-52540000D03*
%TO.P,An7,3,3*%
%TO.N,+3.3V*%
X176000000Y-50000000D03*
%TD*%
D12*
%TO.P,Dig2,1,A*%
%TO.N,GND*%
X141460000Y-62000000D03*
D13*
%TO.P,Dig2,2,B*%
%TO.N,/D6*%
X144000000Y-62000000D03*
%TD*%
D12*
%TO.P,Dig6,1,A*%
%TO.N,GND*%
X133000000Y-52000000D03*
D13*
%TO.P,Dig6,2,B*%
%TO.N,/D1*%
X135540000Y-52000000D03*
%TD*%
D10*
%TO.P,An5,1,1*%
%TO.N,GND*%
X176000000Y-65080000D03*
D11*
%TO.P,An5,2,2*%
%TO.N,/A6*%
X176000000Y-62540000D03*
%TO.P,An5,3,3*%
%TO.N,+3.3V*%
X176000000Y-60000000D03*
%TD*%
D12*
%TO.P,Dig9,1,A*%
%TO.N,GND*%
X141460000Y-83000000D03*
D13*
%TO.P,Dig9,2,B*%
%TO.N,/D14*%
X144000000Y-83000000D03*
%TD*%
D10*
%TO.P,An3,1,1*%
%TO.N,GND*%
X176000000Y-75080000D03*
D11*
%TO.P,An3,2,2*%
%TO.N,/A5*%
X176000000Y-72540000D03*
%TO.P,An3,3,3*%
%TO.N,+3.3V*%
X176000000Y-70000000D03*
%TD*%
D10*
%TO.P,An8,1,1*%
%TO.N,GND*%
X164000000Y-55080000D03*
D11*
%TO.P,An8,2,2*%
%TO.N,/A3*%
X164000000Y-52540000D03*
%TO.P,An8,3,3*%
%TO.N,+3.3V*%
X164000000Y-50000000D03*
%TD*%
D12*
%TO.P,J5,1*%
%TO.N,GND*%
X131000000Y-139000000D03*
D13*
%TO.P,J5,2*%
%TO.N,/inR*%
X133540000Y-139000000D03*
%TD*%
D10*
%TO.P,SW1,1,A*%
%TO.N,Net-(SW1-A)*%
X185000000Y-122540000D03*
D11*
%TO.P,SW1,2,B*%
%TO.N,+5V*%
X185000000Y-120000000D03*
%TD*%
D12*
%TO.P,Dig10,1,A*%
%TO.N,GND*%
X133000000Y-72000000D03*
D13*
%TO.P,Dig10,2,B*%
%TO.N,/D9*%
X135540000Y-72000000D03*
%TD*%
D12*
%TO.P,Dig4,1,A*%
%TO.N,GND*%
X133000000Y-83000000D03*
D13*
%TO.P,Dig4,2,B*%
%TO.N,/D13*%
X135540000Y-83000000D03*
%TD*%
D18*
%TO.N,+5V*%
X185000000Y-120000000D02*
X161786100Y-120000000D01*
X161786100Y-120000000D02*
X159386100Y-122400000D01*
%TO.N,/D11*%
X153000000Y-72000000D02*
X148000000Y-67000000D01*
X148000000Y-67000000D02*
X148000000Y-53551856D01*
X148000000Y-53551856D02*
X144651144Y-50203000D01*
X144651144Y-50203000D02*
X140438740Y-50203000D01*
X140438740Y-50203000D02*
X125369000Y-65272740D01*
X125369000Y-65272740D02*
X125369000Y-117950660D01*
X140455100Y-123551000D02*
X141606100Y-122400000D01*
X125369000Y-117950660D02*
X130969340Y-123551000D01*
X130969340Y-123551000D02*
X140455100Y-123551000D01*
%TO.N,/D15*%
X153000000Y-83000000D02*
X147599000Y-77599000D01*
X147599000Y-77599000D02*
X147599000Y-53717956D01*
X144485044Y-50604000D02*
X140604840Y-50604000D01*
X147599000Y-53717956D02*
X144485044Y-50604000D01*
X140604840Y-50604000D02*
X127711000Y-63497840D01*
X127711000Y-63497840D02*
X127711000Y-88729623D01*
X127711000Y-88729623D02*
X125805100Y-90635523D01*
X125805100Y-90635523D02*
X125805100Y-116759000D01*
X125805100Y-116759000D02*
X131446100Y-122400000D01*
%TO.N,/D2*%
X144000000Y-52000000D02*
X142829000Y-53171000D01*
X142829000Y-53171000D02*
X142829000Y-95682900D01*
X142829000Y-95682900D02*
X144146100Y-97000000D01*
%TO.N,/D6*%
X144000000Y-62000000D02*
X145297100Y-63297100D01*
X145297100Y-97714760D02*
X144622860Y-98389000D01*
X135137100Y-98389000D02*
X133986100Y-99540000D01*
X145297100Y-63297100D02*
X145297100Y-97714760D01*
X144622860Y-98389000D02*
X135137100Y-98389000D01*
%TO.N,+3.3V*%
X164000000Y-50000000D02*
X176000000Y-50000000D01*
X164000000Y-50000000D02*
X166000000Y-50000000D01*
X166000000Y-50000000D02*
X176000000Y-60000000D01*
X164000000Y-60000000D02*
X176000000Y-60000000D01*
X176000000Y-70000000D02*
X174000000Y-70000000D01*
X174000000Y-70000000D02*
X164000000Y-60000000D01*
X164000000Y-70000000D02*
X176000000Y-70000000D01*
X176000000Y-80000000D02*
X174000000Y-80000000D01*
X174000000Y-80000000D02*
X164000000Y-70000000D01*
X164000000Y-80000000D02*
X176000000Y-80000000D01*
X164000000Y-80000000D02*
X148000000Y-96000000D01*
X148000000Y-96000000D02*
X148000000Y-121086100D01*
X148000000Y-121086100D02*
X146686100Y-122400000D01*
%TD*%
%TA.AperFunction,Conductor*%
%TO.N,+5V*%
G36*
X160513940Y-121146775D02*
G01*
X160639330Y-121272165D01*
X160642757Y-121280438D01*
X160639591Y-121288442D01*
X160536665Y-121398183D01*
X160536649Y-121398201D01*
X160452240Y-121504277D01*
X160452224Y-121504299D01*
X160390196Y-121601860D01*
X160390192Y-121601868D01*
X160346659Y-121694340D01*
X160317767Y-121785100D01*
X160317767Y-121785101D01*
X160299646Y-121877524D01*
X160299644Y-121877536D01*
X160280199Y-122081074D01*
X160266042Y-122253767D01*
X160265954Y-122254528D01*
X160221568Y-122553683D01*
X160216964Y-122561364D01*
X160208278Y-122563539D01*
X160207724Y-122563443D01*
X159393078Y-122402227D01*
X159385627Y-122397260D01*
X159383872Y-122393021D01*
X159356314Y-122253767D01*
X159222640Y-121578295D01*
X159224395Y-121569516D01*
X159231846Y-121564549D01*
X159232298Y-121564468D01*
X159489356Y-121524613D01*
X159490118Y-121524522D01*
X159704972Y-121505904D01*
X159705031Y-121505899D01*
X159762510Y-121501684D01*
X159962182Y-121477111D01*
X160119573Y-121427915D01*
X160200858Y-121386487D01*
X160286473Y-121330509D01*
X160286483Y-121330500D01*
X160286486Y-121330499D01*
X160310054Y-121311620D01*
X160390473Y-121247208D01*
X160497659Y-121146518D01*
X160506032Y-121143354D01*
X160513940Y-121146775D01*
G37*
%TD.AperFunction*%
%TD*%
%TA.AperFunction,Conductor*%
%TO.N,/D11*%
G36*
X140784860Y-122236642D02*
G01*
X141599420Y-122398474D01*
X141606867Y-122403448D01*
X141608618Y-122407681D01*
X141695509Y-122847160D01*
X141763710Y-123192109D01*
X141769757Y-123222691D01*
X141768000Y-123231471D01*
X141761060Y-123236325D01*
X141564958Y-123284304D01*
X141400480Y-123341606D01*
X141400453Y-123341617D01*
X141266362Y-123402260D01*
X141266351Y-123402265D01*
X141150421Y-123462976D01*
X141065922Y-123507664D01*
X141065079Y-123508067D01*
X140888208Y-123584213D01*
X140886801Y-123584715D01*
X140793113Y-123611534D01*
X140792087Y-123611778D01*
X140683777Y-123632453D01*
X140682801Y-123632597D01*
X140553350Y-123646148D01*
X140552498Y-123646206D01*
X140411258Y-123650622D01*
X140402881Y-123647456D01*
X140399198Y-123639294D01*
X140399192Y-123638928D01*
X140399192Y-123461748D01*
X140402619Y-123453475D01*
X140409900Y-123450090D01*
X140535619Y-123439417D01*
X140636008Y-123405895D01*
X140705397Y-123352275D01*
X140711837Y-123341617D01*
X140748821Y-123280403D01*
X140748822Y-123280402D01*
X140748823Y-123280400D01*
X140771322Y-123192109D01*
X140777932Y-123089244D01*
X140763633Y-122847160D01*
X140752174Y-122702295D01*
X140752141Y-122701598D01*
X140747492Y-122450002D01*
X140747567Y-122448452D01*
X140770971Y-122246770D01*
X140775329Y-122238948D01*
X140783942Y-122236498D01*
X140784860Y-122236642D01*
G37*
%TD.AperFunction*%
%TD*%
%TA.AperFunction,Conductor*%
%TO.N,/D15*%
G36*
X130334542Y-121146508D02*
G01*
X130444290Y-121249441D01*
X130550387Y-121333867D01*
X130550394Y-121333872D01*
X130550399Y-121333875D01*
X130647959Y-121395902D01*
X130647961Y-121395903D01*
X130647969Y-121395908D01*
X130735597Y-121437159D01*
X130740440Y-121439439D01*
X130776672Y-121450973D01*
X130831192Y-121468329D01*
X130831196Y-121468329D01*
X130831200Y-121468331D01*
X130915908Y-121484939D01*
X130923633Y-121486454D01*
X131127178Y-121505900D01*
X131299872Y-121520056D01*
X131300624Y-121520143D01*
X131599783Y-121564531D01*
X131607464Y-121569135D01*
X131609639Y-121577821D01*
X131609543Y-121578375D01*
X131448327Y-122393021D01*
X131443360Y-122400472D01*
X131439121Y-122402227D01*
X130624397Y-122563459D01*
X130615616Y-122561704D01*
X130610649Y-122554253D01*
X130610564Y-122553775D01*
X130570715Y-122296753D01*
X130570621Y-122295970D01*
X130552011Y-122081206D01*
X130551998Y-122081052D01*
X130547783Y-122023582D01*
X130547780Y-122023558D01*
X130523212Y-121823926D01*
X130523211Y-121823917D01*
X130474015Y-121666526D01*
X130474014Y-121666524D01*
X130474014Y-121666523D01*
X130432592Y-121585250D01*
X130432590Y-121585247D01*
X130432587Y-121585241D01*
X130376609Y-121499626D01*
X130376604Y-121499620D01*
X130376599Y-121499612D01*
X130321075Y-121430293D01*
X130293308Y-121395627D01*
X130192619Y-121288441D01*
X130189454Y-121280067D01*
X130192874Y-121272160D01*
X130318266Y-121146768D01*
X130326538Y-121143342D01*
X130334542Y-121146508D01*
G37*
%TD.AperFunction*%
%TD*%
%TA.AperFunction,Conductor*%
%TO.N,/D2*%
G36*
X143034542Y-95746508D02*
G01*
X143144290Y-95849441D01*
X143250387Y-95933867D01*
X143250394Y-95933872D01*
X143250399Y-95933875D01*
X143347959Y-95995902D01*
X143347961Y-95995903D01*
X143347969Y-95995908D01*
X143435597Y-96037159D01*
X143440440Y-96039439D01*
X143476672Y-96050973D01*
X143531192Y-96068329D01*
X143531196Y-96068329D01*
X143531200Y-96068331D01*
X143615908Y-96084939D01*
X143623633Y-96086454D01*
X143827178Y-96105900D01*
X143999872Y-96120056D01*
X144000624Y-96120143D01*
X144299783Y-96164531D01*
X144307464Y-96169135D01*
X144309639Y-96177821D01*
X144309543Y-96178375D01*
X144148327Y-96993021D01*
X144143360Y-97000472D01*
X144139121Y-97002227D01*
X143324397Y-97163459D01*
X143315616Y-97161704D01*
X143310649Y-97154253D01*
X143310564Y-97153775D01*
X143270715Y-96896753D01*
X143270621Y-96895970D01*
X143252011Y-96681206D01*
X143251998Y-96681052D01*
X143247783Y-96623582D01*
X143247780Y-96623558D01*
X143223212Y-96423926D01*
X143223211Y-96423917D01*
X143174015Y-96266526D01*
X143174014Y-96266524D01*
X143174014Y-96266523D01*
X143132592Y-96185250D01*
X143132590Y-96185247D01*
X143132587Y-96185241D01*
X143076609Y-96099626D01*
X143076604Y-96099620D01*
X143076599Y-96099612D01*
X143021075Y-96030293D01*
X142993308Y-95995627D01*
X142892619Y-95888441D01*
X142889454Y-95880067D01*
X142892874Y-95872160D01*
X143018266Y-95746768D01*
X143026538Y-95743342D01*
X143034542Y-95746508D01*
G37*
%TD.AperFunction*%
%TD*%
%TA.AperFunction,Conductor*%
%TO.N,/D6*%
G36*
X135189319Y-98292543D02*
G01*
X135193002Y-98300705D01*
X135193008Y-98301071D01*
X135193008Y-98478251D01*
X135189581Y-98486524D01*
X135182298Y-98489909D01*
X135056581Y-98500583D01*
X134956189Y-98534105D01*
X134886799Y-98587727D01*
X134843378Y-98659597D01*
X134843377Y-98659598D01*
X134820878Y-98747890D01*
X134814268Y-98850754D01*
X134828567Y-99092838D01*
X134840023Y-99237693D01*
X134840057Y-99238399D01*
X134844707Y-99489989D01*
X134844631Y-99491554D01*
X134821228Y-99693228D01*
X134816870Y-99701051D01*
X134808257Y-99703501D01*
X134807326Y-99703355D01*
X133992779Y-99541525D01*
X133985332Y-99536551D01*
X133983581Y-99532318D01*
X133822442Y-98717305D01*
X133824199Y-98708528D01*
X133831137Y-98703674D01*
X134027247Y-98655694D01*
X134191732Y-98598387D01*
X134325858Y-98537729D01*
X134441756Y-98477035D01*
X134526291Y-98432327D01*
X134527103Y-98431939D01*
X134703992Y-98355785D01*
X134705394Y-98355284D01*
X134799096Y-98328462D01*
X134800099Y-98328223D01*
X134908438Y-98307543D01*
X134909380Y-98307404D01*
X135038870Y-98293849D01*
X135039680Y-98293794D01*
X135180942Y-98289377D01*
X135189319Y-98292543D01*
G37*
%TD.AperFunction*%
%TD*%
%TA.AperFunction,Conductor*%
%TO.N,+3.3V*%
G36*
X147813940Y-121146775D02*
G01*
X147939330Y-121272165D01*
X147942757Y-121280438D01*
X147939591Y-121288442D01*
X147836665Y-121398183D01*
X147836649Y-121398201D01*
X147752240Y-121504277D01*
X147752224Y-121504299D01*
X147690196Y-121601860D01*
X147690192Y-121601868D01*
X147646659Y-121694340D01*
X147617767Y-121785100D01*
X147617767Y-121785101D01*
X147599646Y-121877524D01*
X147599644Y-121877536D01*
X147580199Y-122081074D01*
X147566042Y-122253767D01*
X147565954Y-122254528D01*
X147521568Y-122553683D01*
X147516964Y-122561364D01*
X147508278Y-122563539D01*
X147507724Y-122563443D01*
X146693078Y-122402227D01*
X146685627Y-122397260D01*
X146683872Y-122393021D01*
X146656314Y-122253767D01*
X146522640Y-121578295D01*
X146524395Y-121569516D01*
X146531846Y-121564549D01*
X146532298Y-121564468D01*
X146789356Y-121524613D01*
X146790118Y-121524522D01*
X147004972Y-121505904D01*
X147005031Y-121505899D01*
X147062510Y-121501684D01*
X147262182Y-121477111D01*
X147419573Y-121427915D01*
X147500858Y-121386487D01*
X147586473Y-121330509D01*
X147586483Y-121330500D01*
X147586486Y-121330499D01*
X147610054Y-121311620D01*
X147690473Y-121247208D01*
X147797659Y-121146518D01*
X147806032Y-121143354D01*
X147813940Y-121146775D01*
G37*
%TD.AperFunction*%
%TD*%
M02*
