M48
; DRILL file {KiCad 9.0.6} date 2026-05-04T19:09:08+0200
; FORMAT={-:-/ absolute / metric / decimal}
; #@! TF.CreationDate,2026-05-04T19:09:08+02:00
; #@! TF.GenerationSoftware,Kicad,Pcbnew,9.0.6
; #@! TF.FileFunction,Plated,1,4,PTH
FMAT,2
METRIC
; #@! TA.AperFunction,Plated,PTH,ComponentDrill
T1C1.000
; #@! TA.AperFunction,Plated,PTH,ComponentDrill
T2C1.190
; #@! TA.AperFunction,Plated,PTH,ComponentDrill
T3C3.200
%
G90
G05
T1
X131.446Y-97.0
X131.446Y-99.54
X131.446Y-122.4
X131.446Y-124.94
X133.986Y-94.46
X133.986Y-97.0
X133.986Y-99.54
X133.986Y-122.4
X133.986Y-124.94
X133.986Y-127.48
X136.526Y-94.46
X136.526Y-97.0
X136.526Y-99.54
X136.526Y-122.4
X136.526Y-124.94
X136.526Y-127.48
X139.066Y-94.46
X139.066Y-97.0
X139.066Y-99.54
X139.066Y-122.4
X139.066Y-124.94
X139.066Y-127.48
X141.606Y-97.0
X141.606Y-99.54
X141.606Y-122.4
X141.606Y-124.94
X144.146Y-97.0
X144.146Y-99.54
X144.146Y-122.4
X144.146Y-124.94
X144.146Y-127.48
X146.686Y-97.0
X146.686Y-99.54
X146.686Y-122.4
X146.686Y-124.94
X146.686Y-127.48
X149.226Y-97.0
X149.226Y-99.54
X149.226Y-122.4
X149.226Y-124.94
X149.226Y-127.48
X151.76Y-102.094
X151.766Y-97.0
X151.766Y-99.54
X151.766Y-122.4
X151.766Y-124.94
X151.766Y-127.48
X154.3Y-102.094
X154.306Y-97.0
X154.306Y-99.54
X154.306Y-122.4
X154.306Y-124.94
X154.306Y-127.48
X156.84Y-102.094
X156.846Y-97.0
X156.846Y-99.54
X156.846Y-122.4
X156.846Y-124.94
X159.38Y-102.094
X159.386Y-97.0
X159.386Y-99.54
X159.386Y-122.4
X159.386Y-124.94
X161.92Y-102.094
X161.926Y-97.0
X161.926Y-99.54
X161.926Y-122.4
X161.926Y-124.94
X164.46Y-102.094
X164.466Y-97.0
X164.466Y-99.54
X164.466Y-122.4
X164.466Y-124.94
X167.0Y-102.094
X167.006Y-97.0
X167.006Y-99.54
X167.006Y-122.4
X167.006Y-124.94
X169.54Y-102.094
X169.546Y-97.0
X169.546Y-99.54
X169.546Y-122.4
X169.546Y-124.94
X172.08Y-102.094
X172.086Y-97.0
X172.086Y-99.54
X172.086Y-122.4
X172.086Y-124.94
X174.62Y-102.094
X174.626Y-97.0
X174.626Y-99.54
X174.626Y-122.4
X174.626Y-124.94
T2
X117.0Y-127.0
X117.0Y-129.54
X117.0Y-132.08
X124.0Y-52.0
X124.0Y-62.0
X124.0Y-72.0
X124.0Y-83.0
X126.54Y-52.0
X126.54Y-62.0
X126.54Y-72.0
X126.54Y-83.0
X131.0Y-139.0
X133.0Y-52.0
X133.0Y-62.0
X133.0Y-72.0
X133.0Y-83.0
X133.54Y-139.0
X135.54Y-52.0
X135.54Y-62.0
X135.54Y-72.0
X135.54Y-83.0
X139.0Y-139.02
X141.46Y-52.0
X141.46Y-62.0
X141.46Y-72.0
X141.46Y-83.0
X141.54Y-139.02
X144.0Y-52.0
X144.0Y-62.0
X144.0Y-72.0
X144.0Y-83.0
X150.46Y-52.0
X150.46Y-62.0
X150.46Y-72.0
X150.46Y-83.0
X150.46Y-139.0
X153.0Y-52.0
X153.0Y-62.0
X153.0Y-72.0
X153.0Y-83.0
X153.0Y-139.0
X155.54Y-139.0
X160.46Y-139.0
X163.0Y-139.0
X164.0Y-50.0
X164.0Y-52.54
X164.0Y-55.08
X164.0Y-60.0
X164.0Y-62.54
X164.0Y-65.08
X164.0Y-70.0
X164.0Y-72.54
X164.0Y-75.08
X164.0Y-80.0
X164.0Y-82.54
X164.0Y-85.08
X165.54Y-139.0
X176.0Y-50.0
X176.0Y-52.54
X176.0Y-55.08
X176.0Y-60.0
X176.0Y-62.54
X176.0Y-65.08
X176.0Y-70.0
X176.0Y-72.54
X176.0Y-75.08
X176.0Y-80.0
X176.0Y-82.54
X176.0Y-85.08
X185.0Y-120.0
X185.0Y-122.54
X185.0Y-129.0
X185.0Y-131.54
T3
X128.906Y-91.92
X128.906Y-130.02
X177.166Y-91.92
X177.166Y-130.02
M30
